<svg width="1358" height="360" viewBox="0 0 1358 360" fill="none" xmlns="http://www.w3.org/2000/svg">
<path d="M11 116C11 94.4758 11.0234 79.4393 12.5494 68.0885C14.033 57.0541 16.7527 51.164 20.9584 46.9584C25.164 42.7527 31.0541 40.033 42.0885 38.5494C53.4393 37.0234 68.4758 37 90 37H210C231.524 37 246.561 37.0234 257.911 38.5494C268.946 40.033 274.836 42.7527 279.042 46.9584C283.247 51.164 285.967 57.0541 287.451 68.0885C288.977 79.4393 289 94.4758 289 116V236C289 257.524 288.977 272.561 287.451 283.911C285.967 294.946 283.247 300.836 279.042 305.042C274.836 309.247 268.946 311.967 257.911 313.451C246.561 314.977 231.524 315 210 315H90C68.4758 315 53.4393 314.977 42.0885 313.451C31.0541 311.967 25.164 309.247 20.9584 305.042C16.7527 300.836 14.033 294.946 12.5494 283.911C11.0234 272.561 11 257.524 11 236V116Z" stroke="white" stroke-width="22"/>
<rect x="33" y="149.785" width="40" height="113" rx="10" fill="white"/>
<rect x="266" y="270" width="20" height="232" rx="10" transform="rotate(90 266 270)" fill="white"/>
<rect x="80" y="82.7852" width="40" height="180" rx="10" fill="white"/>
<rect x="127" y="118.785" width="40" height="144" rx="10" fill="white"/>
<rect x="167" y="204.914" width="40" height="64" rx="10" transform="rotate(-19.1581 167 204.914)" fill="white"/>
<rect x="226" y="177.785" width="40" height="85" rx="10" fill="white"/>
<path d="M505.7 282L460.1 213.9L438.5 235.2V282H398.3V63H438.5V195.9L501.5 125.1H544.4L485.9 191.7L548.6 282H505.7ZM568.885 312.6C572.285 313.6 575.585 314.3 578.785 314.7C581.985 315.3 584.685 315.6 586.885 315.6C589.485 315.6 591.885 315.1 594.085 314.1C596.285 313.1 598.285 311.3 600.085 308.7C601.885 306.3 603.685 302.9 605.485 298.5C607.285 294.1 609.185 288.6 611.185 282L549.085 124.8H590.485L633.085 247.2L670.885 124.8H708.685L642.685 313.2C638.885 324.2 632.385 333.2 623.185 340.2C613.985 347.2 602.585 350.7 588.985 350.7C585.785 350.7 582.485 350.4 579.085 349.8C575.885 349.4 572.485 348.6 568.885 347.4V312.6ZM786.411 285C773.211 285 760.311 282.9 747.711 278.7C735.111 274.5 724.311 268.5 715.311 260.7L730.311 235.5C739.911 242.3 749.211 247.5 758.211 251.1C767.411 254.5 776.511 256.2 785.511 256.2C793.511 256.2 799.811 254.7 804.411 251.7C809.011 248.7 811.311 244.4 811.311 238.8C811.311 233.2 808.611 229.1 803.211 226.5C797.811 223.9 789.011 220.9 776.811 217.5C766.611 214.7 757.911 212 750.711 209.4C743.511 206.8 737.711 203.9 733.311 200.7C728.911 197.3 725.711 193.5 723.711 189.3C721.711 184.9 720.711 179.7 720.711 173.7C720.711 165.7 722.211 158.5 725.211 152.1C728.411 145.7 732.811 140.3 738.411 135.9C744.011 131.3 750.511 127.8 757.911 125.4C765.511 123 773.711 121.8 782.511 121.8C794.311 121.8 805.311 123.5 815.511 126.9C825.911 130.3 835.411 135.8 844.011 143.4L827.811 167.7C819.811 161.7 812.011 157.3 804.411 154.5C797.011 151.7 789.611 150.3 782.211 150.3C775.411 150.3 769.711 151.7 765.111 154.5C760.511 157.3 758.211 161.8 758.211 168C758.211 170.8 758.711 173.1 759.711 174.9C760.911 176.7 762.711 178.3 765.111 179.7C767.511 181.1 770.611 182.5 774.411 183.9C778.411 185.1 783.311 186.4 789.111 187.8C799.911 190.6 809.111 193.4 816.711 196.2C824.511 199 830.811 202.2 835.611 205.8C840.611 209.4 844.211 213.6 846.411 218.4C848.811 223 850.011 228.6 850.011 235.2C850.011 250.6 844.311 262.8 832.911 271.8C821.511 280.6 806.011 285 786.411 285ZM948.732 285C935.932 285 924.432 282.8 914.232 278.4C904.032 274 895.332 268.1 888.132 260.7C881.132 253.1 875.732 244.4 871.932 234.6C868.132 224.8 866.232 214.5 866.232 203.7C866.232 192.7 868.132 182.3 871.932 172.5C875.732 162.7 881.132 154.1 888.132 146.7C895.332 139.1 904.032 133.1 914.232 128.7C924.432 124.3 935.932 122.1 948.732 122.1C961.532 122.1 972.932 124.3 982.932 128.7C993.132 133.1 1001.73 139.1 1008.73 146.7C1015.93 154.1 1021.43 162.7 1025.23 172.5C1029.03 182.3 1030.93 192.7 1030.93 203.7C1030.93 214.5 1029.03 224.8 1025.23 234.6C1021.43 244.4 1016.03 253.1 1009.03 260.7C1002.03 268.1 993.432 274 983.232 278.4C973.032 282.8 961.532 285 948.732 285ZM907.632 203.7C907.632 210.7 908.632 217.1 910.632 222.9C912.832 228.5 915.732 233.4 919.332 237.6C923.132 241.8 927.532 245.1 932.532 247.5C937.532 249.7 942.932 250.8 948.732 250.8C954.532 250.8 959.932 249.7 964.932 247.5C969.932 245.1 974.232 241.8 977.832 237.6C981.632 233.4 984.532 228.4 986.532 222.6C988.732 216.8 989.832 210.4 989.832 203.4C989.832 196.6 988.732 190.3 986.532 184.5C984.532 178.7 981.632 173.7 977.832 169.5C974.232 165.3 969.932 162.1 964.932 159.9C959.932 157.5 954.532 156.3 948.732 156.3C942.932 156.3 937.532 157.5 932.532 159.9C927.532 162.3 923.132 165.6 919.332 169.8C915.732 174 912.832 179 910.632 184.8C908.632 190.6 907.632 196.9 907.632 203.7Z" fill="white"/>
<path d="M1049.4 290V246.8H1082.4V290H1049.4ZM1117.68 290V132.8H1157.88V290H1117.68ZM1117.68 110.9V71H1157.88V110.9H1117.68ZM1266.75 293C1253.95 293 1242.45 290.8 1232.25 286.4C1222.05 282 1213.35 276.1 1206.15 268.7C1199.15 261.1 1193.75 252.4 1189.95 242.6C1186.15 232.8 1184.25 222.5 1184.25 211.7C1184.25 200.7 1186.15 190.3 1189.95 180.5C1193.75 170.7 1199.15 162.1 1206.15 154.7C1213.35 147.1 1222.05 141.1 1232.25 136.7C1242.45 132.3 1253.95 130.1 1266.75 130.1C1279.55 130.1 1290.95 132.3 1300.95 136.7C1311.15 141.1 1319.75 147.1 1326.75 154.7C1333.95 162.1 1339.45 170.7 1343.25 180.5C1347.05 190.3 1348.95 200.7 1348.95 211.7C1348.95 222.5 1347.05 232.8 1343.25 242.6C1339.45 252.4 1334.05 261.1 1327.05 268.7C1320.05 276.1 1311.45 282 1301.25 286.4C1291.05 290.8 1279.55 293 1266.75 293ZM1225.65 211.7C1225.65 218.7 1226.65 225.1 1228.65 230.9C1230.85 236.5 1233.75 241.4 1237.35 245.6C1241.15 249.8 1245.55 253.1 1250.55 255.5C1255.55 257.7 1260.95 258.8 1266.75 258.8C1272.55 258.8 1277.95 257.7 1282.95 255.5C1287.95 253.1 1292.25 249.8 1295.85 245.6C1299.65 241.4 1302.55 236.4 1304.55 230.6C1306.75 224.8 1307.85 218.4 1307.85 211.4C1307.85 204.6 1306.75 198.3 1304.55 192.5C1302.55 186.7 1299.65 181.7 1295.85 177.5C1292.25 173.3 1287.95 170.1 1282.95 167.9C1277.95 165.5 1272.55 164.3 1266.75 164.3C1260.95 164.3 1255.55 165.5 1250.55 167.9C1245.55 170.3 1241.15 173.6 1237.35 177.8C1233.75 182 1230.85 187 1228.65 192.8C1226.65 198.6 1225.65 204.9 1225.65 211.7Z" fill="white" fill-opacity="0.3"/>
</svg>
